<svg width="642" height="600" viewBox="0 0 642 600" fill="none" xmlns="http://www.w3.org/2000/svg">
<g filter="url(#filter0_f_120_194)">
<circle cx="279" cy="265.209" r="215" fill="black"/>
</g>
<g clip-path="url(#clip0_120_194)">
<path d="M593.467 459.018L622.268 463.515C632.017 451.72 638.737 437.726 641.846 422.747C620.786 439.973 588.76 430.819 563.224 440.223C555.282 443.217 548.116 447.959 542.257 454.096C536.399 460.234 531.997 467.61 529.379 475.679L515.304 490.81C528.045 495.851 541.728 498.071 555.41 497.318C569.092 496.566 582.449 492.858 594.559 486.451C601.317 482.789 607.587 478.291 613.22 473.064C603.143 466.723 593.467 459.018 593.467 459.018Z" fill="#F2F2F2"/>
<path d="M583.243 412.991L611.027 404.181C614.489 389.28 614.258 373.76 610.355 358.968C599.194 383.77 566.444 389.849 547.785 409.647C542.013 415.866 537.715 423.303 535.211 431.407C532.706 439.512 532.059 448.075 533.317 456.464L527.473 476.28C541.126 475.113 554.364 471.003 566.274 464.231C578.184 457.46 588.484 448.19 596.463 437.058C600.878 430.769 604.482 423.949 607.191 416.76C595.341 415.576 583.243 412.991 583.243 412.991Z" fill="#F2F2F2"/>
<path d="M642 499.977C642 500.126 641.971 500.273 641.915 500.41C641.858 500.547 641.775 500.672 641.67 500.777C641.565 500.882 641.44 500.965 641.302 501.022C641.165 501.078 641.018 501.107 640.869 501.107H1.1307C0.830822 501.107 0.54322 500.988 0.331173 500.776C0.119125 500.564 0 500.277 0 499.977C0 499.677 0.119125 499.39 0.331173 499.178C0.54322 498.966 0.830822 498.847 1.1307 498.847H640.869C641.018 498.847 641.165 498.876 641.302 498.932C641.44 498.989 641.565 499.072 641.67 499.177C641.775 499.282 641.858 499.407 641.915 499.544C641.971 499.681 642 499.829 642 499.977Z" fill="#CCCCCC"/>
<path d="M265.095 451.809C377.919 451.809 469.381 360.417 469.381 247.678C469.381 134.94 377.919 43.5472 265.095 43.5472C152.271 43.5472 60.8087 134.94 60.8087 247.678C60.8087 360.417 152.271 451.809 265.095 451.809Z" fill="#E6E6E6"/>
<path d="M440.876 247.678C440.897 275.086 434.49 302.117 422.169 326.603C409.848 351.09 391.955 372.351 369.927 388.681C368.454 389.782 366.953 390.855 365.442 391.899C335.986 412.36 300.97 423.326 265.095 423.326C229.221 423.326 194.205 412.36 164.748 391.899C163.237 390.855 161.736 389.782 160.263 388.681C138.25 372.336 120.369 351.073 108.05 326.589C95.7304 302.106 89.3142 275.082 89.3142 247.678C89.3142 220.274 95.7304 193.251 108.05 168.767C120.369 144.284 138.25 123.02 160.263 106.676C161.736 105.575 163.237 104.502 164.748 103.457C194.205 82.9969 229.221 72.0306 265.095 72.0306C300.97 72.0306 335.986 82.9969 365.442 103.457C366.953 104.502 368.454 105.575 369.927 106.676C391.955 123.006 409.848 144.267 422.169 168.753C434.49 193.24 440.897 220.271 440.876 247.678Z" fill="white"/>
<path d="M265.095 408.135C353.78 408.135 425.673 336.296 425.673 247.678C425.673 159.061 353.78 87.2218 265.095 87.2218C176.41 87.2218 104.516 159.061 104.516 247.678C104.516 336.296 176.41 408.135 265.095 408.135Z" fill="#2A7B4F"/>
<path opacity="0.2" d="M265.514 87.6703C263.079 87.6703 260.66 87.7339 258.252 87.841C298.838 91.4047 336.55 110.251 363.748 140.561C390.947 170.872 405.598 210.38 404.734 251.081C403.869 291.783 387.553 330.634 359.092 359.764C330.631 388.894 292.152 406.124 251.452 407.964C256.087 408.366 260.775 408.583 265.514 408.583C308.102 408.583 348.945 391.678 379.06 361.587C409.174 331.495 426.092 290.683 426.092 248.127C426.092 205.571 409.174 164.758 379.06 134.667C348.945 104.576 308.102 87.6703 265.514 87.6703Z" fill="black"/>
<path d="M265.57 75.8284C264.185 75.8308 262.857 76.3817 261.878 77.3605C260.898 78.3393 260.347 79.6661 260.344 81.0503V103.837C260.344 105.222 260.895 106.55 261.875 107.53C262.855 108.509 264.184 109.059 265.57 109.059C266.956 109.059 268.285 108.509 269.265 107.53C270.246 106.55 270.796 105.222 270.796 103.837V81.0503C270.794 79.6661 270.242 78.3393 269.263 77.3605C268.283 76.3817 266.955 75.8308 265.57 75.8284Z" fill="white"/>
<path d="M369.927 106.676C368.454 105.575 366.953 104.502 365.442 103.457C364.536 103.398 363.629 103.577 362.813 103.974C361.996 104.372 361.298 104.976 360.786 105.727L347.95 124.554C347.17 125.699 346.877 127.106 347.135 128.466C347.393 129.826 348.182 131.028 349.327 131.808C350.473 132.587 351.881 132.88 353.242 132.622C354.604 132.364 355.807 131.576 356.587 130.431L369.423 111.604C369.912 110.889 370.214 110.064 370.302 109.204C370.39 108.343 370.261 107.474 369.927 106.676Z" fill="white"/>
<path d="M428.248 192.525C427.99 191.89 427.609 191.312 427.128 190.825C426.646 190.337 426.073 189.949 425.441 189.683C424.809 189.416 424.131 189.277 423.446 189.273C422.76 189.268 422.08 189.399 421.445 189.657L400.313 198.231C399.031 198.753 398.008 199.763 397.47 201.038C396.931 202.313 396.922 203.75 397.443 205.032C397.965 206.314 398.974 207.337 400.25 207.876C401.526 208.415 402.963 208.426 404.247 207.906L425.379 199.332C426.661 198.808 427.683 197.797 428.22 196.521C428.758 195.245 428.768 193.808 428.248 192.525Z" fill="white"/>
<path d="M182.24 124.554L169.403 105.727C168.892 104.976 168.193 104.372 167.377 103.975C166.56 103.577 165.654 103.398 164.747 103.457C163.236 104.502 161.735 105.575 160.262 106.676C159.929 107.474 159.8 108.343 159.888 109.204C159.976 110.064 160.278 110.889 160.766 111.604L173.603 130.431C174.383 131.576 175.586 132.364 176.947 132.622C178.308 132.88 179.717 132.587 180.862 131.808C182.007 131.028 182.796 129.826 183.054 128.466C183.313 127.106 183.02 125.699 182.24 124.554Z" fill="white"/>
<path d="M129.876 198.231L108.744 189.658C107.46 189.137 106.022 189.147 104.745 189.685C103.469 190.224 102.458 191.247 101.937 192.53C101.415 193.813 101.425 195.25 101.964 196.526C102.503 197.801 103.526 198.811 104.81 199.332L125.942 207.906C127.226 208.426 128.663 208.415 129.939 207.876C131.215 207.337 132.224 206.314 132.745 205.032C133.267 203.75 133.257 202.313 132.719 201.038C132.181 199.763 131.158 198.753 129.876 198.231Z" fill="white"/>
<path d="M265.57 386.298C264.185 386.3 262.857 386.851 261.878 387.83C260.898 388.809 260.347 390.135 260.344 391.52V414.306C260.344 415.691 260.895 417.019 261.875 417.999C262.855 418.978 264.184 419.528 265.57 419.528C266.956 419.528 268.285 418.978 269.265 417.999C270.246 417.019 270.796 415.691 270.796 414.306V391.52C270.794 390.135 270.242 388.809 269.263 387.83C268.283 386.851 266.955 386.3 265.57 386.298Z" fill="white"/>
<path d="M369.423 383.753L356.587 364.926C356.201 364.359 355.706 363.874 355.133 363.498C354.559 363.122 353.916 362.863 353.242 362.735C352.568 362.607 351.876 362.613 351.204 362.753C350.532 362.892 349.895 363.163 349.327 363.549C348.76 363.935 348.275 364.428 347.899 365.002C347.522 365.575 347.263 366.217 347.135 366.891C347.007 367.564 347.013 368.256 347.153 368.928C347.293 369.599 347.563 370.236 347.95 370.803L360.786 389.63C361.298 390.38 361.996 390.984 362.813 391.382C363.629 391.78 364.536 391.958 365.442 391.899C366.953 390.855 368.454 389.782 369.927 388.681C370.261 387.883 370.39 387.014 370.302 386.153C370.214 385.292 369.912 384.467 369.423 383.753Z" fill="white"/>
<path d="M425.378 296.024L404.247 287.451C402.963 286.93 401.524 286.94 400.248 287.478C398.971 288.017 397.961 289.04 397.439 290.323C396.918 291.606 396.928 293.043 397.466 294.319C398.005 295.594 399.029 296.604 400.313 297.125L421.445 305.699C422.728 306.219 424.166 306.208 425.442 305.669C426.717 305.13 427.727 304.107 428.248 302.825C428.769 301.543 428.76 300.106 428.222 298.831C427.684 297.556 426.661 296.546 425.378 296.024Z" fill="white"/>
<path d="M180.862 363.549C179.717 362.77 178.308 362.477 176.947 362.735C175.586 362.993 174.383 363.781 173.603 364.925L160.766 383.753C160.278 384.467 159.976 385.292 159.888 386.153C159.8 387.013 159.929 387.882 160.262 388.681C161.735 389.782 163.236 390.855 164.747 391.899C165.654 391.958 166.56 391.78 167.377 391.382C168.193 390.984 168.892 390.38 169.403 389.63L182.24 370.803C182.626 370.236 182.897 369.599 183.037 368.927C183.176 368.256 183.182 367.564 183.055 366.89C182.927 366.217 182.667 365.575 182.291 365.002C181.915 364.428 181.429 363.935 180.862 363.549Z" fill="white"/>
<path d="M132.746 290.318C132.488 289.683 132.107 289.105 131.625 288.618C131.144 288.13 130.57 287.742 129.939 287.476C129.307 287.209 128.629 287.07 127.943 287.066C127.257 287.061 126.578 287.192 125.943 287.451L104.811 296.024C103.528 296.546 102.505 297.556 101.967 298.831C101.429 300.106 101.42 301.543 101.941 302.825C102.462 304.107 103.472 305.13 104.747 305.669C106.023 306.208 107.461 306.219 108.744 305.699L129.876 297.125C131.158 296.601 132.18 295.59 132.718 294.314C133.256 293.038 133.266 291.601 132.746 290.318Z" fill="white"/>
<path d="M272.35 245.087C272.832 247.942 272.162 250.871 270.486 253.232C268.81 255.593 266.265 257.194 263.41 257.682L170.675 273.444C169.261 273.685 167.813 273.644 166.414 273.326C165.015 273.007 163.692 272.416 162.522 271.586C161.351 270.757 160.356 269.705 159.592 268.491C158.828 267.277 158.311 265.925 158.071 264.511C157.83 263.098 157.871 261.651 158.19 260.253C158.509 258.855 159.1 257.533 159.93 256.364C160.76 255.194 161.813 254.199 163.028 253.436C164.243 252.673 165.596 252.157 167.011 251.916L259.745 236.154C262.602 235.672 265.533 236.342 267.896 238.016C270.259 239.691 271.861 242.234 272.35 245.087Z" fill="#3F3D56"/>
<path d="M369.951 347.752C368.618 349.091 366.809 349.847 364.92 349.854C363.03 349.861 361.215 349.12 359.873 347.791L260.045 248.822C258.705 247.492 257.949 245.684 257.943 243.797C257.936 241.909 258.68 240.096 260.01 238.756C261.34 237.417 263.149 236.659 265.038 236.651C266.926 236.643 268.741 237.384 270.083 238.712L369.911 337.681C371.251 339.013 372.007 340.821 372.015 342.708C372.022 344.596 371.28 346.41 369.951 347.752Z" fill="#3F3D56"/>
<path d="M265.095 260.021C271.917 260.021 277.447 254.495 277.447 247.678C277.447 240.862 271.917 235.336 265.095 235.336C258.273 235.336 252.743 240.862 252.743 247.678C252.743 254.495 258.273 260.021 265.095 260.021Z" fill="#CCCCCC"/>
<path d="M180.013 33.6529C161.053 63.4395 132.123 83.2071 96.446 96.1934C95.741 96.721 94.9389 97.1047 94.0855 97.3226C93.2322 97.5404 92.3442 97.5882 91.4723 97.4631C90.6005 97.3381 89.7618 97.0427 89.0042 96.5938C88.2466 96.1448 87.5849 95.5512 87.0569 94.8467C67.6773 68.9909 72.0532 32.0379 97.6301 12.281C103.814 7.51281 110.884 4.01947 118.429 2.00382C125.975 -0.011838 133.846 -0.509659 141.586 0.539269C149.326 1.5882 156.78 4.16297 163.516 8.11411C170.252 12.0653 176.136 17.3141 180.825 23.5558L181.361 24.2709C181.889 24.9754 182.273 25.7769 182.491 26.6296C182.709 27.4824 182.757 28.3697 182.632 29.2409C182.506 30.1121 182.211 30.9501 181.761 31.7071C181.312 32.4641 180.718 33.1253 180.013 33.6529Z" fill="#E6E6E6"/>
<path d="M349.364 23.5558C354.054 17.3141 359.937 12.0652 366.673 8.1141C373.409 4.16296 380.863 1.5882 388.603 0.539273C396.343 -0.509655 404.214 -0.0118485 411.76 2.00381C419.306 4.01946 426.376 7.5128 432.559 12.281C458.136 32.0378 462.512 68.9909 443.132 94.8467C442.604 95.5512 441.943 96.1448 441.185 96.5937C440.428 97.0427 439.589 97.3381 438.717 97.4631C437.845 97.5882 436.957 97.5404 436.104 97.3226C435.25 97.1047 434.448 96.721 433.743 96.1934C400.623 83.5227 373.463 61.5961 350.176 33.6529C348.752 32.5874 347.811 31.0003 347.558 29.2408C347.305 27.4813 347.762 25.6936 348.828 24.2709L349.364 23.5558Z" fill="#E6E6E6"/>
<path d="M341.054 424.53C339.846 425.208 338.957 426.337 338.58 427.669C338.204 429.001 338.371 430.428 339.045 431.637L369.205 485.492C369.882 486.701 371.012 487.591 372.346 487.967C373.679 488.343 375.108 488.174 376.317 487.498C377.527 486.822 378.418 485.693 378.794 484.361C379.171 483.028 379.003 481.601 378.326 480.392L348.166 426.537C347.487 425.33 346.358 424.442 345.025 424.065C343.692 423.689 342.264 423.856 341.054 424.53Z" fill="#E6E6E6"/>
<path d="M182.022 426.537L151.862 480.392C151.185 481.601 151.017 483.028 151.394 484.361C151.771 485.693 152.662 486.822 153.871 487.498C155.08 488.174 156.509 488.343 157.843 487.967C159.176 487.591 160.306 486.7 160.983 485.492L191.143 431.637C191.478 431.039 191.692 430.38 191.773 429.699C191.853 429.018 191.799 428.328 191.612 427.667C191.426 427.007 191.111 426.391 190.686 425.852C190.261 425.313 189.734 424.864 189.135 424.529C188.536 424.194 187.877 423.98 187.195 423.9C186.514 423.82 185.823 423.874 185.162 424.061C184.502 424.247 183.885 424.562 183.346 424.987C182.807 425.412 182.357 425.938 182.022 426.537Z" fill="#E6E6E6"/>
<path d="M375.314 499.282C384.235 499.282 391.467 492.055 391.467 483.141C391.467 474.227 384.235 467 375.314 467C366.393 467 359.162 474.227 359.162 483.141C359.162 492.055 366.393 499.282 375.314 499.282Z" fill="#E6E6E6"/>
<path d="M386.717 86.2724C395.638 86.2724 402.869 79.046 402.869 70.1318C402.869 61.2176 395.638 53.9912 386.717 53.9912C377.796 53.9912 370.564 61.2176 370.564 70.1318C370.564 79.046 377.796 86.2724 386.717 86.2724Z" fill="#E6E6E6"/>
<path d="M264.145 48.2945C273.066 48.2945 280.298 41.0681 280.298 32.1539C280.298 23.2397 273.066 16.0133 264.145 16.0133C255.224 16.0133 247.992 23.2397 247.992 32.1539C247.992 41.0681 255.224 48.2945 264.145 48.2945Z" fill="#E6E6E6"/>
<path d="M147.274 84.3735C156.195 84.3735 163.427 77.1471 163.427 68.2329C163.427 59.3187 156.195 52.0923 147.274 52.0923C138.353 52.0923 131.121 59.3187 131.121 68.2329C131.121 77.1471 138.353 84.3735 147.274 84.3735Z" fill="#E6E6E6"/>
<path d="M157.726 499.282C166.647 499.282 173.879 492.055 173.879 483.141C173.879 474.227 166.647 467 157.726 467C148.805 467 141.573 474.227 141.573 483.141C141.573 492.055 148.805 499.282 157.726 499.282Z" fill="#E6E6E6"/>
<path d="M362.644 338.674C363.281 339.67 364.129 340.515 365.127 341.148C366.126 341.782 367.252 342.189 368.425 342.341C369.598 342.492 370.79 342.385 371.917 342.027C373.045 341.668 374.08 341.067 374.949 340.266L400.295 353.837L398.936 338.967L375.075 328.36C373.631 326.989 371.734 326.196 369.744 326.129C367.753 326.063 365.807 326.728 364.275 328C362.743 329.271 361.73 331.06 361.43 333.027C361.129 334.995 361.561 337.004 362.644 338.674Z" fill="#FFB7B7"/>
<path d="M381.112 343.864L391.045 330.163L438.895 352.766L498.439 341.602C501.383 341.051 504.411 341.153 507.311 341.903C510.21 342.652 512.908 344.03 515.214 345.939C517.521 347.847 519.378 350.24 520.655 352.947C521.932 355.654 522.597 358.608 522.602 361.6C522.606 367.005 520.465 372.191 516.647 376.019C512.83 379.848 507.648 382.007 502.239 382.023L434.002 382.15L381.112 343.864Z" fill="#3F3D56"/>
<path d="M365.814 580.491L355.764 575.689L369.569 533.715L384.4 540.804L365.814 580.491Z" fill="#FFB7B7"/>
<path d="M433.186 573.724C432.456 574.182 431.725 574.632 430.987 575.082C429.518 575.981 428.034 576.867 426.55 577.737C425.805 578.172 425.052 578.607 424.306 579.035V579.057L424.262 579.065L424.247 579.072L423.111 579.352L421.479 575.045L420.726 573.061L419.663 570.25L417.715 565.109L407.454 538.039L423.406 534.108L424.004 536.549H424.011L424.306 537.759L429.879 560.344L431.016 564.962L431.053 565.102L431.74 567.861L432.33 570.25L432.987 572.921L433.186 573.724Z" fill="#FFB7B7"/>
<path d="M528.344 478.661C527.333 480.284 526.3 481.899 525.259 483.5C523.325 486.48 521.339 489.415 519.302 492.307C519.302 492.314 519.294 492.314 519.287 492.321C518.098 493.422 516.786 494.38 515.375 495.176C515.316 495.22 515.249 495.25 515.19 495.287C514.151 495.86 513.046 496.304 511.898 496.607C511.485 496.71 511.064 496.813 510.651 496.917C509.16 497.271 507.683 497.573 506.214 497.839C503.601 498.303 501.018 498.635 498.449 498.842C498.242 498.864 498.036 498.879 497.829 498.893C487.266 499.668 476.983 498.421 466.25 496.378C460.95 495.375 455.54 494.173 449.937 492.926C448.106 492.513 446.268 492.107 444.408 491.702C444.268 491.672 444.12 491.635 443.973 491.606C441.315 491.023 438.614 490.448 435.845 489.88C432.361 489.164 428.767 488.471 425.031 487.815L425.297 493.074C425.518 497.119 426.36 501.107 427.792 504.897C429.387 509.559 430.649 513.247 427.984 520.925L426.7 524.643C427.365 526.489 427.594 528.464 427.367 530.413C427.141 532.362 426.465 534.232 425.393 535.877L425.135 536.268L435.845 563.345L436.539 565.1H431.055L424.308 565.108H412.874L396.376 532.034L395.586 530.455V530.374L397.291 466.815C397.313 466.255 397.358 465.687 397.432 465.126C397.732 462.578 398.538 460.115 399.802 457.881C401.065 455.647 402.761 453.687 404.791 452.115C406.736 450.596 408.964 449.478 411.345 448.828C413.726 448.177 416.213 448.005 418.661 448.324L424.308 449.054L435.845 450.544L443.973 451.599L444.135 451.621L468.103 454.719L469.823 447.711L470.14 447.593L480.231 443.898L515.131 431.115L515.22 431.086L517.515 430.245L517.789 430.687C517.87 430.82 517.951 430.953 518.025 431.086C520.294 435.15 522.141 439.436 523.539 443.876C525.889 451.129 527.823 458.509 529.333 465.982C529.4 466.306 529.459 466.601 529.511 466.867L529.533 466.948C529.555 467.073 529.57 467.154 529.577 467.177C530.382 470.525 529.821 474.612 528.344 478.661Z" fill="#2F2E41"/>
<path d="M529.817 455.238C529.707 454.766 529.566 454.286 529.419 453.821C528.247 450.302 526.882 446.85 525.329 443.48C523.587 439.645 521.498 435.536 519.011 431.089C517.808 428.935 516.513 426.695 515.128 424.369C514.434 423.204 513.713 422.016 512.965 420.806C512.936 420.751 512.904 420.697 512.869 420.644L512.655 420.29L478.124 424.908L465.265 426.626L464.498 433.029L464.313 434.614C464.306 434.614 464.306 434.614 464.313 434.622L463.796 438.944V438.951L463.11 444.66L463.051 444.653L443.969 442.182L424.305 439.637L413.742 438.273C411.294 437.954 408.807 438.125 406.426 438.776C404.044 439.427 401.816 440.545 399.872 442.064C397.842 443.636 396.146 445.597 394.883 447.83C393.619 450.064 392.813 452.527 392.512 455.075C392.446 455.592 392.401 456.123 392.379 456.646L382.414 480.242C376.451 494.354 372.654 509.284 371.15 524.528L363.842 547.873L364.883 547.969L380.369 549.407L384.459 549.791L393.464 536.654C394.49 535.157 395.465 533.615 396.373 532.037C397.868 529.459 399.197 526.788 400.351 524.041L419.831 477.72C421.337 477.978 422.828 478.224 424.305 478.457C431.133 479.564 437.688 480.466 443.969 481.164C464.394 483.444 482.081 483.621 497.825 481.688C502.247 481.15 506.521 480.441 510.647 479.564C512.161 479.247 513.654 478.905 515.128 478.538C515.475 478.457 515.814 478.376 516.154 478.288C519.205 477.502 522.009 475.963 524.311 473.814C526.613 471.665 528.339 468.973 529.33 465.984C530.514 462.522 530.683 458.793 529.817 455.238Z" fill="#2F2E41"/>
<path d="M369.024 573.637L358.151 568.43L356.446 567.611L353.722 574.294L334.707 578.476C333.767 578.682 332.917 579.183 332.282 579.906C331.647 580.628 331.26 581.535 331.178 582.493C331.095 583.452 331.322 584.411 331.824 585.232C332.326 586.052 333.078 586.691 333.969 587.054L352.548 594.629L358.446 589.326L356.999 596.444L363.997 599.298L371.666 574.906L369.024 573.637Z" fill="#2F2E41"/>
<path d="M435.845 563.345L436.54 565.1H435.845V563.345Z" fill="#2F2E41"/>
<path d="M432.059 565.475L420.666 569.42L418.878 570.037L421.648 576.701L411.081 593.042C410.558 593.849 410.307 594.802 410.365 595.762C410.423 596.722 410.786 597.639 411.402 598.378C412.019 599.117 412.855 599.639 413.79 599.869C414.724 600.099 415.708 600.025 416.597 599.656L435.133 591.976L435.59 584.061L439.574 590.136L446.556 587.244L434.83 564.519L432.059 565.475Z" fill="#2F2E41"/>
<path d="M526.976 465.924C526.3 465.923 525.633 465.758 525.035 465.443L464.913 434.052L464.219 431.21L462.91 422.217L462.928 422.133L468.645 395.792C468.541 395.566 468.322 395.195 468.074 394.776C465.522 390.454 457.753 377.301 472.579 359.19L498.61 328.865L520.951 327.905L521.205 328.226C527.179 335.718 531.207 344.569 532.933 353.992C534.659 363.415 534.028 373.118 531.096 382.238L528.77 424.22L531.265 432.698C532.724 437.68 532.483 443.006 530.579 447.836L531.151 461.564C531.174 462.127 531.082 462.689 530.883 463.215C530.683 463.742 530.379 464.223 529.99 464.63C529.6 465.037 529.132 465.361 528.615 465.583C528.097 465.806 527.54 465.922 526.976 465.924Z" fill="#3F3D56"/>
<path d="M474.825 500.546C475.844 499.945 476.718 499.128 477.386 498.153C478.055 497.177 478.501 496.067 478.694 494.901C478.886 493.735 478.821 492.541 478.501 491.402C478.182 490.264 477.617 489.21 476.846 488.313L491.3 463.474L476.381 464.314L464.942 487.773C463.521 489.168 462.661 491.035 462.525 493.02C462.39 495.006 462.988 496.972 464.206 498.546C465.424 500.121 467.178 501.194 469.135 501.563C471.093 501.931 473.117 501.57 474.825 500.546Z" fill="#FFB7B7"/>
<path d="M480.658 482.284L467.301 471.889L491.572 424.89L482.477 365.038C482.028 362.08 482.236 359.059 483.086 356.19C483.936 353.321 485.408 350.674 487.398 348.437C489.387 346.2 491.845 344.428 494.596 343.248C497.348 342.067 500.326 341.505 503.319 341.604C508.724 341.788 513.836 344.107 517.533 348.052C521.23 351.998 523.209 357.248 523.037 362.65L520.789 430.799L480.658 482.284Z" fill="#3F3D56"/>
<path d="M484.279 316.265V294.174C484.274 286.324 487.39 278.792 492.942 273.238C498.494 267.683 506.027 264.559 513.884 264.554C521.74 264.549 529.277 267.663 534.836 273.211C540.395 278.758 543.521 286.285 543.526 294.136V294.174C548.747 305.046 545.481 310.215 543.526 316.265C543.524 317.318 543.105 318.328 542.359 319.073C541.614 319.818 540.603 320.237 539.549 320.239H488.259C487.204 320.238 486.193 319.819 485.447 319.074C484.701 318.329 484.281 317.319 484.279 316.265Z" fill="#2F2E41"/>
<path d="M504.189 318.804C516.436 318.804 526.363 308.884 526.363 296.646C526.363 284.409 516.436 274.489 504.189 274.489C491.943 274.489 482.015 284.409 482.015 296.646C482.015 308.884 491.943 318.804 504.189 318.804Z" fill="#FFB7B7"/>
<path d="M527.396 302.455C527.195 302.423 526.994 302.381 526.793 302.349C523.334 301.736 519.875 301.134 516.427 300.51L516.109 292.7L511.931 299.696C502.401 302.857 493.484 301.07 485.096 297.128C482.33 295.816 479.645 294.337 477.057 292.7C477.762 288.38 479.424 284.272 481.922 280.676C484.42 277.081 487.691 274.089 491.496 271.92C491.813 271.74 492.12 271.582 492.437 271.423L492.441 271.422L492.445 271.42L492.447 271.417L492.448 271.412C492.987 271.159 493.537 270.916 494.087 270.694C498.393 269.012 503.089 268.586 507.627 269.466C512.166 270.345 516.362 272.494 519.727 275.661C526.497 282.119 529.543 292.784 527.396 302.455Z" fill="#2F2E41"/>
</g>
<defs>
<filter id="filter0_f_120_194" x="26.5806" y="12.7894" width="504.839" height="504.839" filterUnits="userSpaceOnUse" color-interpolation-filters="sRGB">
<feFlood flood-opacity="0" result="BackgroundImageFix"/>
<feBlend mode="normal" in="SourceGraphic" in2="BackgroundImageFix" result="shape"/>
<feGaussianBlur stdDeviation="18.7097" result="effect1_foregroundBlur_120_194"/>
</filter>
<clipPath id="clip0_120_194">
<rect width="642" height="600" fill="white"/>
</clipPath>
</defs>
</svg>
